{"glyphs":{":":{"x_min":0,"x_max":262,"ha":262,"o":"m 122 211 b 87 211 67 175 69 150 b 70 126 90 95 131 95 b 163 95 192 132 192 156 b 192 187 172 211 122 211 z m 122 493 b 87 493 67 457 69 432 b 70 408 80 377 112 377 b 144 377 192 395 192 419 b 192 451 172 493 122 493 z"},"$":{"x_min":0,"x_max":581,"ha":581,"o":"m 401 691 b 465 691 483 682 502 682 b 542 682 526 817 419 817 b 389 817 355 812 321 802 b 322 808 322 813 322 815 b 321 846 288 884 256 883 b 224 882 223 868 224 843 b 224 834 222 805 220 762 b 113 709 22 624 22 546 b 22 497 117 479 209 451 b 209 355 212 257 223 177 b 203 175 183 175 163 175 b 139 175 58 184 58 221 b 58 262 7 271 7 220 b 7 125 89 77 178 77 b 199 77 221 78 242 81 b 258 30 280 -1 312 -1 b 336 -1 323 22 311 95 b 419 126 509 200 509 324 b 509 417 406 461 302 486 b 305 553 309 620 313 676 b 344 685 374 691 401 691 z m 374 318 b 374 249 342 213 299 194 b 297 218 296 245 296 275 b 295 316 297 365 299 416 b 342 394 374 363 374 318 z m 210 505 b 145 517 95 524 95 536 b 95 556 147 599 213 634 b 212 594 210 550 210 505 z"},"?":{"x_min":0,"x_max":510,"ha":510,"o":"m 325 676 b 312 532 144 549 132 419 b 128 365 140 206 218 199 b 278 193 221 245 234 389 b 251 571 442 523 456 665 b 469 815 437 959 248 975 b 57 992 18 744 15 710 b 12 677 56 634 105 629 b 153 626 135 658 140 703 b 144 749 234 911 289 906 b 346 901 332 755 325 676 z m 290 25 b 294 60 253 119 207 122 b 163 126 125 131 120 87 b 117 40 282 -54 290 25 z"},"<":{"x_min":0,"x_max":455,"ha":455,"o":"m 400 509 b 445 561 289 603 222 518 b 203 499 147 441 124 419 b 90 384 62 359 41 342 b -15 294 103 209 145 166 b 168 143 249 70 268 51 b 295 25 380 53 357 77 b 344 90 268 159 207 220 b 188 238 150 275 156 280 b 182 302 214 333 259 371 b 325 427 388 495 400 509 z"},"'":{"x_min":0,"x_max":210,"ha":210,"o":"m 56 720 b 56 631 29 604 65 604 b 165 604 145 761 145 858 b 145 873 144 883 114 883 b 83 884 51 851 51 831 b 51 817 56 762 56 720 z"},"=":{"x_min":0,"x_max":597,"ha":597,"o":"m 100 446 b 42 438 54 378 104 380 b 259 388 267 386 425 376 b 453 368 480 461 440 465 b 302 478 234 464 100 446 z m 100 272 b 42 264 54 202 104 204 b 259 212 267 204 425 194 b 452 190 508 277 440 278 b 302 291 234 290 100 272 z"},"a":{"x_min":0,"x_max":506,"ha":506,"o":"m 572 362 b 565 340 455 24 434 24 b 401 24 407 216 404 284 b 404 289 404 294 404 300 b 404 321 379 349 318 349 b 258 349 258 313 258 293 b 258 241 195 32 165 32 b 135 32 131 92 131 129 b 131 313 218 491 316 491 b 353 491 360 410 360 387 b 360 365 396 377 396 391 b 396 537 323 537 220 537 b 72 537 0 323 0 192 b 0 53 64 0 143 0 b 222 0 260 152 268 152 b 275 152 298 -43 392 -43 b 399 -43 405 -42 408 -40 b 493 -10 591 334 596 357 b 601 382 578 383 572 362 z"},"L":{"x_min":0,"x_max":299,"ha":299,"o":"m 123 -17 b 138 17 150 56 158 100 b 194 306 195 751 205 806 b 221 897 70 864 57 793 b 45 722 38 244 9 81 b 2 40 -7 5 -16 -24 b -32 -26 -46 -29 -59 -33 b -81 -37 -97 -43 -109 -51 b -153 -74 -161 -102 -161 -118 b -161 -145 -140 -187 -65 -187 b -21 -187 31 -162 80 -94 b 371 -97 561 -290 584 -292 b 619 -295 652 -267 657 -209 b 667 -95 364 -12 123 -17 z m -95 -160 b -131 -160 -119 -82 -27 -82 b -27 -82 -58 -160 -95 -160 z"},"3":{"x_min":0,"x_max":559,"ha":559,"o":"m 363 518 b 529 613 520 887 266 887 b 90 887 36 705 32 674 b 29 644 44 615 103 615 b 162 615 140 644 145 685 b 156 786 223 852 266 852 b 427 852 397 564 263 535 b 210 542 161 537 158 507 b 155 476 185 466 264 486 b 462 472 423 126 150 126 b 125 126 47 138 55 183 b 63 234 13 245 2 182 b -17 65 89 5 188 5 b 460 5 672 433 363 518 z"},";":{"x_min":0,"x_max":247,"ha":247,"o":"m 183 126 b 195 120 193 15 161 -50 b 137 -98 106 -127 76 -141 b 48 -154 28 -132 59 -70 b 91 -7 71 87 82 109 b 93 131 151 142 183 126 z m 117 353 b 78 353 57 314 58 287 b 59 261 71 228 105 228 b 141 228 192 247 192 272 b 192 307 170 353 117 353 z"},"J":{"x_min":0,"x_max":562,"ha":562,"o":"m 287 998 b 113 998 -71 796 -93 549 b -97 509 -56 495 -45 495 b -34 495 -37 507 -37 548 b -37 676 79 949 282 949 b 389 949 397 -209 39 -209 b -29 -209 -57 -155 -68 -107 b -74 -85 -115 -98 -106 -126 b -86 -188 -41 -298 80 -298 b 597 -298 609 998 287 998 z"},"V":{"x_min":0,"x_max":597,"ha":597,"o":"m 351 969 b 261 969 432 866 432 583 b 432 342 280 85 192 45 b 181 83 156 152 156 276 b 156 378 159 448 159 673 b 159 749 96 834 37 838 b 18 845 -3 849 -27 849 b -156 849 -242 813 -330 813 b -417 813 -410 835 -444 835 b -478 835 -411 686 -322 686 b -243 686 -150 719 -14 726 b -13 227 48 0 151 0 b 170 0 182 1 189 4 b 353 35 578 275 578 565 b 578 866 442 969 351 969 z"},"\"":{"x_min":0,"x_max":382,"ha":382,"o":"m 56 720 b 56 631 29 604 65 604 b 165 604 145 761 145 858 b 145 873 144 883 114 883 b 83 884 51 851 51 831 b 51 817 56 762 56 720 z m 211 720 b 211 662 182 600 218 600 b 300 600 300 740 300 837 b 300 852 288 877 272 877 b 238 877 207 851 206 831 b 206 817 211 762 211 720 z"},"7":{"x_min":0,"x_max":578,"ha":578,"o":"m 499 893 b 491 896 485 899 480 900 b 477 902 474 903 471 903 b 443 901 464 901 385 894 b 260 893 188 911 110 905 b 31 899 -3 799 27 801 b 56 803 40 805 116 811 b 193 817 272 789 385 798 b 389 798 392 798 396 799 b 285 597 4 72 158 3 b 210 -20 181 44 241 179 b 318 352 537 751 548 774 b 561 804 541 874 499 893 z"},"S":{"x_min":0,"x_max":711,"ha":711,"o":"m 504 982 b 310 982 7 717 7 557 b 7 514 62 460 115 460 b 142 460 267 548 428 548 b 498 548 510 487 510 413 b 510 247 261 67 141 67 b 111 67 52 79 52 125 b 52 176 -12 187 -12 123 b -12 4 96 -56 161 -56 b 356 -56 680 142 680 420 b 680 498 650 603 435 603 b 271 603 166 535 120 535 b 18 535 304 823 483 823 b 563 823 615 760 638 760 b 688 760 639 982 504 982 z"},"}":{"x_min":0,"x_max":293,"ha":293,"o":"m 48 -68 b 16 -68 36 -98 97 -98 b 112 -98 131 -93 139 -83 b 154 -68 180 -23 180 30 l 180 65 b 179 138 178 236 185 292 b 200 381 226 411 231 422 b 231 423 231 425 231 426 b 231 427 231 428 231 428 b 226 440 200 470 185 560 b 178 615 179 713 180 787 l 180 822 b 180 875 154 919 139 934 b 131 944 111 949 96 949 b 29 949 22 919 48 919 b 67 919 73 863 72 809 l 72 772 b 70 708 70 629 78 574 b 92 489 109 443 137 426 b 109 409 92 361 78 279 b 70 222 70 145 72 80 l 72 42 b 73 -11 67 -68 48 -68 z"},"Z":{"x_min":0,"x_max":697,"ha":697,"o":"m 1839 -246 b 1788 -246 1802 -375 1645 -375 b 1337 -375 732 9 281 123 b 359 203 439 294 511 382 b 734 384 848 401 848 417 b 848 425 711 431 553 433 b 691 604 794 753 794 767 b 794 800 774 874 730 874 b 726 874 717 868 705 857 b 644 850 509 828 236 828 b -15 828 -26 737 10 737 b 40 737 19 790 231 790 b 346 790 477 761 618 760 b 545 675 447 554 345 435 b 207 435 95 432 95 425 b 95 415 162 396 304 387 b 229 300 155 217 91 154 b 82 154 72 154 63 154 b -387 154 -194 -113 -56 -113 b 13 -113 118 -36 230 72 b 622 -68 1345 -554 1609 -554 b 1919 -554 1891 -246 1839 -246 z m -79 30 b -170 30 -155 106 45 110 b -8 61 -52 30 -79 30 z"},"x":{"x_min":0,"x_max":493,"ha":493,"o":"m 467 -13 b 409 -13 343 78 287 184 b 359 287 418 400 418 442 b 418 473 344 536 344 496 b 344 467 299 376 239 283 b 186 400 149 510 149 523 b 149 575 23 493 23 473 b 23 414 75 277 145 157 b 94 98 43 55 5 55 b -9 55 -15 -6 74 -6 b 108 -6 152 26 197 74 b 253 -6 313 -65 363 -65 b 422 -65 492 -13 467 -13 z"},")":{"x_min":0,"x_max":303,"ha":303,"o":"m 262 333 b 262 635 139 944 86 944 b 34 944 4 921 4 871 b 4 843 153 703 153 299 b 153 -16 15 -73 89 -73 b 156 -73 262 130 262 333 z"},"&":{"x_min":0,"x_max":594,"ha":594,"o":"m 466 761 b 436 781 398 787 359 786 b 377 821 399 856 399 871 b 399 897 358 939 338 939 b 321 939 268 813 268 786 b 268 781 268 774 269 768 b 196 743 135 692 122 630 b 96 524 150 468 176 450 b 91 410 18 347 0 267 b -14 213 26 146 55 112 b 58 93 84 58 124 33 b 149 18 185 14 225 14 b 217 -12 210 -42 210 -67 b 210 -167 264 -215 306 -215 b 347 -215 288 -194 288 -128 b 288 -67 334 -1 345 27 b 402 41 451 60 453 70 b 459 96 446 162 432 170 b 417 179 175 66 81 123 b 79 125 78 125 74 126 b 71 140 66 156 72 175 b 117 368 517 343 523 369 b 530 396 498 463 468 482 b 429 505 349 505 269 483 b 265 483 203 476 175 500 b 175 509 175 520 177 531 b 204 652 459 674 493 653 b 527 634 535 660 535 660 b 538 680 504 740 466 761 z"},"_":{"x_min":0,"x_max":790,"ha":790,"o":"m 717 -81 b 775 -73 763 -13 713 -15 b 558 -23 229 -21 71 -11 b 3 -11 -12 -99 56 -100 b 194 -113 583 -99 717 -81 z"},"v":{"x_min":0,"x_max":425,"ha":425,"o":"m 321 561 b 314 532 331 536 291 387 b 276 326 216 203 187 131 b 160 204 130 309 130 448 b 130 499 94 540 25 540 b -14 540 -1 502 -1 483 b -1 176 134 2 213 2 b 220 2 224 4 226 7 b 243 -1 257 -1 261 12 b 261 12 348 194 392 362 b 436 529 329 590 321 561 z"},"O":{"x_min":0,"x_max":667,"ha":667,"o":"m 345 980 b 196 980 136 854 111 753 b 99 755 88 756 74 756 b 2 756 -25 600 -25 532 b -25 322 55 -52 307 -52 b 501 -52 631 443 631 628 b 631 811 576 980 345 980 z m 485 628 b 485 407 382 0 278 0 b 176 0 134 375 134 434 b 134 482 138 522 144 559 b 160 551 177 547 196 547 b 254 547 229 585 229 639 b 229 695 337 901 405 901 b 472 901 485 723 485 628 z"},"(":{"x_min":0,"x_max":303,"ha":303,"o":"m -5 333 b -5 130 101 -73 168 -73 b 242 -73 104 -16 104 299 b 104 703 253 843 253 871 b 253 921 223 944 171 944 b 118 944 -5 635 -5 333 z"},"C":{"x_min":0,"x_max":616,"ha":616,"o":"m 0 414 b 0 129 99 -56 324 -56 b 513 -56 549 194 549 212 b 549 283 452 322 452 282 b 452 242 374 -5 327 -5 b 280 -5 190 115 190 389 b 190 685 344 943 471 943 b 563 943 396 596 454 596 b 535 596 718 1010 481 1010 b 230 1010 0 699 0 414 z"},"W":{"x_min":0,"x_max":849,"ha":849,"o":"m 626 1009 b 535 1009 706 898 706 594 b 706 400 621 82 544 21 b 540 72 509 162 509 286 b 509 357 511 393 511 483 b 511 565 448 657 388 661 b 330 665 345 643 348 597 b 342 497 269 114 209 14 b 190 14 175 69 175 101 b 175 181 201 584 201 642 b 201 756 117 819 50 819 b 43 819 37 818 32 817 b -52 811 -153 774 -302 774 b -391 774 -380 825 -411 825 b -443 825 -393 643 -241 643 b -134 643 -57 669 16 678 b 15 483 -1 280 -1 176 b -1 70 63 -41 158 -41 b 165 -41 170 -41 176 -40 b 178 -40 180 -40 182 -40 b 232 -40 300 162 334 344 b 341 63 411 -32 496 -32 b 504 -32 511 -31 517 -30 b 679 -14 853 302 853 575 b 853 898 716 1009 626 1009 z"},"A":{"x_min":0,"x_max":550,"ha":550,"o":"m 458 225 b 435 408 458 846 448 926 b 438 1002 297 1034 296 948 b 196 890 -200 808 -221 620 b -228 561 -165 520 -161 557 b -149 657 37 748 209 816 b 180 726 127 578 65 428 b -108 317 -304 163 -320 24 b -329 -54 -306 -117 -177 -132 b -63 -145 84 179 188 457 b 234 485 272 508 296 522 b 297 428 301 334 311 256 b 341 25 463 -85 526 -77 b 590 -69 495 -57 458 225 z m -250 -70 b -304 -64 -293 19 -293 19 b -282 116 -120 250 36 357 b -62 131 -173 -79 -250 -70 z m 296 561 b 274 550 245 534 209 514 b 248 620 279 714 297 775 b 296 712 295 637 296 561 z"},"f":{"x_min":0,"x_max":411,"ha":411,"o":"m 450 735 b 410 735 323 724 225 715 b 250 881 291 941 400 941 b 430 941 377 1020 302 1020 b 168 1020 118 914 91 703 b 51 701 13 699 -22 699 b -101 699 -130 727 -130 701 b -130 666 -106 601 -33 601 b 2 601 41 605 81 610 b 72 500 57 380 57 212 b 57 33 123 -177 221 -177 b 274 -177 191 -159 191 186 b 191 339 205 517 216 631 b 301 646 383 661 443 661 b 508 661 510 649 529 649 b 548 649 533 735 450 735 z"},"Q":{"x_min":0,"x_max":638,"ha":638,"o":"m 1119 -325 b 1101 -325 1092 -368 975 -368 b 804 -368 647 -74 441 58 b 534 177 578 403 578 530 b 578 707 556 974 302 974 b 166 974 97 870 64 756 b 57 757 50 757 41 757 b -26 757 -53 533 -53 467 b -53 335 -26 168 74 67 b 12 20 -13 -42 -22 -58 b -40 -80 -8 -97 0 -78 b 7 -68 30 2 95 49 b 146 7 215 -20 305 -20 b 339 -20 369 -8 398 14 b 572 -144 773 -479 951 -479 b 1125 -479 1178 -325 1119 -325 z m 277 30 b 242 30 213 55 190 90 b 208 94 225 96 245 96 b 272 96 302 84 332 64 b 317 43 298 30 277 30 z m 423 530 b 423 384 401 201 355 102 b 319 115 283 122 245 122 b 220 122 196 120 176 115 b 131 204 114 336 114 372 b 114 385 114 397 115 409 b 128 406 140 404 153 404 b 209 404 185 442 185 495 b 185 694 243 897 360 897 b 424 897 423 623 423 530 z"},"w":{"x_min":0,"x_max":643,"ha":643,"o":"m 558 579 b 527 579 460 562 460 542 b 460 521 463 526 463 503 b 463 305 443 159 376 97 b 366 131 357 175 357 232 b 357 268 357 346 357 377 b 357 423 268 432 245 432 b 223 432 218 407 218 390 l 218 271 b 193 195 151 95 135 56 b 125 83 115 124 115 192 b 115 328 141 441 141 475 b 141 510 79 538 30 538 b -12 538 14 509 14 486 b 14 453 0 290 0 186 b 0 17 155 -23 155 3 b 155 11 151 18 146 29 l 218 209 l 218 165 b 218 57 321 8 381 8 b 412 8 400 27 384 73 b 400 70 421 66 445 66 b 531 66 592 229 592 364 b 592 493 590 579 558 579 z"},"-":{"x_min":0,"x_max":597,"ha":597,"o":"m 100 446 b 42 438 54 378 104 380 b 259 388 267 386 425 376 b 493 376 508 464 440 465 b 302 478 234 464 100 446 z"},"E":{"x_min":0,"x_max":667,"ha":667,"o":"m 633 336 b 633 369 571 416 523 416 b 511 416 477 354 458 284 b 421 257 212 1 105 1 b 102 1 100 0 98 0 b 90 13 82 29 82 52 b 82 294 510 534 510 567 b 510 601 460 654 423 654 b 376 654 294 601 212 523 l 212 523 b 212 523 147 472 109 479 b 106 490 104 502 104 516 b 104 667 366 861 407 861 b 416 861 423 863 429 865 b 443 822 476 808 488 808 b 504 808 498 816 498 832 b 498 884 574 982 574 1012 b 574 1043 527 1090 504 1090 b 486 1090 437 981 425 932 b 405 949 378 962 351 962 b 218 962 21 741 21 588 b 21 454 92 429 123 424 b 44 325 -18 207 -18 104 b -18 37 41 -11 80 -28 b 90 -47 124 -69 172 -69 b 245 -69 378 38 453 116 b 475 28 532 -15 577 -15 b 635 -15 553 15 553 109 b 553 202 633 302 633 336 z"},"s":{"x_min":0,"x_max":379,"ha":379,"o":"m 1 311 b 1 149 216 182 216 182 b 216 146 78 -2 30 -2 b 4 -2 42 -54 101 -54 b 160 -54 321 89 321 178 b 321 266 168 264 142 264 b 83 264 153 459 230 459 b 246 459 204 318 222 318 b 239 318 335 413 335 488 b 335 564 234 555 161 555 b 89 555 1 398 1 311 z"},">":{"x_min":0,"x_max":455,"ha":455,"o":"m 43 88 b -3 36 153 -6 220 79 b 240 98 295 156 318 178 b 352 213 380 238 401 255 b 457 303 339 388 297 431 b 274 454 193 527 174 546 b 148 572 62 544 85 520 b 98 507 174 438 235 377 b 254 359 292 322 287 317 b 260 295 228 264 183 226 b 117 170 55 102 43 88 z"},"l":{"x_min":0,"x_max":215,"ha":215,"o":"m 53 840 b 56 791 -7 376 2 193 b 10 11 109 -83 165 -80 b 222 -78 139 -62 128 160 b 122 305 183 749 180 812 b 177 874 50 921 53 840 z"},"8":{"x_min":0,"x_max":591,"ha":591,"o":"m 383 523 b 458 571 489 662 489 744 b 489 864 427 908 351 908 b 290 908 210 903 179 850 b 83 837 59 746 59 672 b 59 614 78 543 148 508 b 47 461 16 364 6 308 b 2 289 0 272 0 262 b 0 153 9 0 282 0 b 454 0 534 201 534 296 b 534 375 521 486 383 523 z m 222 752 b 269 778 246 860 342 860 b 480 860 432 573 313 533 b 303 534 292 534 280 534 b 274 534 268 534 262 534 b 213 559 222 668 222 752 z m 392 296 b 392 182 348 27 257 27 b 121 27 181 365 181 383 b 181 385 181 387 180 389 b 210 449 264 493 333 493 b 393 493 392 346 392 296 z"},"\\":{"x_min":0,"x_max":619,"ha":619,"o":"m 566 11 b 480 72 178 828 43 928 b -1 970 -20 930 -2 900 b 69 850 359 8 503 -63 b 620 -121 604 -10 566 11 z"},"e":{"x_min":0,"x_max":379,"ha":379,"o":"m 423 303 b 417 286 372 92 245 92 b 190 92 129 193 137 292 b 158 286 186 279 210 279 b 275 279 325 334 325 439 b 325 495 303 541 273 555 b 242 570 146 576 105 540 b 65 504 -1 384 -1 254 b -1 154 82 29 221 29 b 378 29 436 274 443 294 b 450 315 430 322 423 303 z m 235 480 b 286 480 266 259 139 313 b 149 400 183 480 235 480 z"},"b":{"x_min":0,"x_max":495,"ha":495,"o":"m 370 500 b 357 509 280 528 248 495 b 208 456 156 237 139 134 b 129 170 122 216 122 274 b 122 496 162 672 162 707 b 162 743 74 773 55 773 b 35 773 34 757 34 750 b 34 742 -1 505 -1 376 b -1 187 32 -2 184 -2 b 213 -2 183 18 155 86 b 171 161 239 459 307 459 b 342 459 359 8 235 8 b 179 8 223 -29 281 -29 b 502 -29 497 415 370 500 z"},"%":{"x_min":0,"x_max":787,"ha":787,"o":"m 264 727 b 229 727 184 723 167 685 b 113 676 99 609 99 555 b 99 497 120 420 207 420 b 304 420 341 520 341 608 b 341 695 307 727 264 727 z m 244 451 b 198 451 219 544 218 613 b 245 632 235 692 259 692 b 337 692 290 451 244 451 z m 599 347 b 565 347 520 343 502 304 b 448 295 434 229 434 175 b 434 117 455 40 543 40 b 639 40 677 140 677 227 b 677 315 642 347 599 347 z m 579 70 b 533 70 554 164 554 233 b 580 252 570 312 594 312 b 673 312 626 70 579 70 z m 48 57 b -2 57 -51 -24 98 -24 b 263 -24 664 815 753 815 b 770 815 784 850 732 850 b 540 850 251 57 48 57 z"},"m":{"x_min":0,"x_max":686,"ha":686,"o":"m 606 186 b 606 252 619 302 619 335 b 619 389 561 402 510 402 b 459 402 391 158 380 158 b 368 158 459 562 287 562 b 200 562 139 243 118 118 b 117 129 117 142 117 157 b 117 229 128 297 128 355 b 128 413 -13 430 -13 400 b -13 385 -1 385 -1 370 b -1 266 -21 -11 117 -11 b 142 -11 141 -2 134 25 b 166 142 209 508 267 508 b 300 508 247 208 247 118 b 247 29 329 14 362 14 b 395 14 475 268 475 268 b 475 268 473 -4 604 -4 b 646 -4 606 41 606 186 z"},"#":{"x_min":0,"x_max":747,"ha":747,"o":"m 735 371 b 685 388 600 403 502 411 b 504 451 506 493 508 534 b 602 525 683 511 731 494 b 770 481 786 570 740 586 b 691 603 609 617 514 625 b 520 725 526 803 525 814 b 525 847 491 886 458 885 b 424 885 423 870 424 844 b 424 827 418 742 413 631 b 360 633 305 633 251 630 b 254 730 256 806 256 816 b 255 848 221 902 188 902 b 155 901 154 886 154 860 b 155 843 150 745 147 620 b 58 608 -24 588 -85 555 b -133 529 -123 495 -78 509 b -22 527 58 538 146 543 b 145 498 145 452 146 406 b 55 394 -28 373 -90 340 b -138 314 -83 275 -83 294 b -83 307 18 313 149 314 b 157 129 182 -32 246 -30 b 286 -29 248 15 244 161 b 243 201 243 255 244 314 b 299 314 356 313 410 311 b 417 128 443 -31 515 -32 b 555 -31 499 27 498 255 b 498 272 498 289 499 308 b 628 301 727 292 726 279 b 764 266 781 355 735 371 z m 409 416 b 355 418 300 418 246 415 b 247 458 248 503 249 546 b 302 546 357 544 410 541 b 409 501 408 459 409 416 z"},",":{"x_min":0,"x_max":247,"ha":247,"o":"m 183 126 b 151 142 93 131 82 109 b 71 87 91 -7 59 -70 b 28 -132 48 -154 76 -141 b 106 -127 137 -98 161 -50 b 193 15 195 120 183 126 z"},"n":{"x_min":0,"x_max":498,"ha":498,"o":"m 463 494 b 463 518 432 537 400 546 b 397 549 388 551 372 551 b 365 552 359 552 353 552 b 353 552 353 552 353 552 b 349 552 346 551 342 550 b 339 549 336 548 334 546 b 262 505 176 243 138 116 b 135 136 133 159 133 185 b 133 218 137 326 137 347 b 137 412 -10 402 -10 384 b -10 366 1 373 1 355 b 1 340 -13 0 133 0 b 138 0 142 1 145 2 b 145 2 145 2 145 2 b 146 2 147 2 148 2 b 153 4 155 7 156 12 b 195 69 271 359 315 470 b 301 393 280 260 280 149 b 280 -20 431 -41 431 -12 b 431 17 412 8 412 159 b 412 235 463 446 463 494 z"},"h":{"x_min":0,"x_max":465,"ha":465,"o":"m 383 -32 b 383 61 401 243 401 325 b 401 406 288 430 252 430 b 222 430 162 198 143 91 b 133 120 125 159 125 208 b 125 419 187 698 187 743 b 187 789 108 803 80 803 b 39 803 52 764 52 749 b 52 702 -92 -3 136 -3 b 168 -3 179 0 178 10 b 183 13 186 18 186 25 b 186 118 247 393 247 393 b 247 393 286 377 286 329 b 286 280 254 71 254 -73 b 254 -218 405 -215 405 -179 b 405 -164 383 -148 383 -32 z"},"z":{"x_min":0,"x_max":485,"ha":485,"o":"m 447 66 b 411 106 353 111 223 95 b 211 93 201 91 191 89 b 280 215 349 431 424 431 b 468 431 386 551 372 551 b 361 551 350 546 339 538 l 338 539 b 338 539 173 486 76 508 b -21 531 -35 495 75 470 b 136 455 212 458 277 465 b 198 343 113 131 19 131 b -36 131 22 -1 66 -1 b 87 -1 107 7 126 20 b 146 29 176 37 224 43 b 369 62 415 -42 437 -39 b 460 -36 458 53 447 66 z"},"B":{"x_min":0,"x_max":634,"ha":634,"o":"m 398 400 b 363 409 318 421 274 431 b 476 596 640 930 333 930 b 53 930 -245 538 -151 538 b -126 538 21 876 335 876 b 586 876 368 558 171 501 b 207 607 256 680 256 705 b 256 746 190 767 142 767 b 105 767 33 548 33 372 b 33 282 88 131 131 131 b 176 131 135 171 135 293 b 135 306 135 318 137 331 b 143 322 150 313 160 310 b 191 301 456 309 526 244 b 307 171 -130 13 -130 -77 b -130 -155 -44 -187 58 -187 b 250 -187 555 -7 592 123 b 639 281 490 372 398 400 z m 543 193 b 514 94 196 -52 -4 -52 b -181 -52 307 139 542 225 b 545 215 547 204 543 193 z"},"K":{"x_min":0,"x_max":556,"ha":556,"o":"m 729 -102 b 590 -102 392 219 193 407 b 400 492 578 676 578 841 b 578 932 545 992 498 992 b 433 992 462 946 462 893 b 462 732 307 554 149 468 b 163 633 182 788 181 804 b 181 840 124 899 68 898 b 12 897 10 880 11 852 b 11 829 -6 694 -14 537 b -26 539 -38 541 -51 541 b -109 541 -170 516 -170 475 b -170 434 -115 361 -26 361 b -23 361 -20 361 -18 361 b -15 154 17 -40 135 -37 b 202 -35 139 13 135 174 b 134 223 136 282 140 345 b 315 131 522 -229 723 -229 b 800 -229 871 -145 871 -102 b 871 -59 812 -102 729 -102 z m -18 416 b -20 416 -23 416 -26 416 b -164 416 -170 500 -63 500 b -48 500 -32 496 -16 488 b -17 464 -17 440 -18 416 z"},"R":{"x_min":0,"x_max":621,"ha":621,"o":"m 819 -133 b 656 -133 446 251 354 440 b 494 519 605 653 605 799 b 605 904 579 967 546 1000 b 513 1033 404 1028 381 1028 b 239 1028 201 599 197 484 b 190 480 183 476 176 473 b 182 696 216 847 216 880 b 216 917 109 921 73 921 b 25 921 3 741 3 591 b 3 263 80 2 218 2 b 241 2 267 17 267 25 b 267 32 182 164 175 373 b 192 376 209 380 226 385 b 321 172 530 -185 760 -185 b 837 -185 861 -133 819 -133 z m 365 976 b 412 976 475 954 475 827 b 475 674 340 568 228 502 b 235 617 278 976 365 976 z"},"T":{"x_min":0,"x_max":357,"ha":357,"o":"m 673 914 b 573 937 386 954 202 941 b 183 957 158 969 134 969 b 84 968 80 953 80 927 b -114 897 -281 826 -306 682 b -311 653 -284 662 -280 685 b -267 764 -112 805 74 821 b 58 568 26 -50 215 -45 b 279 -44 219 4 215 162 b 211 331 233 697 240 829 b 413 831 585 817 679 795 b 726 784 758 751 763 784 b 769 816 730 901 673 914 z"},"P":{"x_min":0,"x_max":419,"ha":419,"o":"m 329 987 b 249 987 167 954 92 904 b 81 901 74 896 71 890 b -75 783 -187 612 -187 487 b -187 419 -146 432 -146 492 b -146 563 -51 705 63 807 b 56 730 42 588 39 442 b 10 447 0 451 0 434 b 0 414 15 399 39 387 b 40 174 71 -30 191 -27 b 259 -25 195 23 192 184 b 190 236 193 300 197 368 b 480 416 762 987 329 987 z m 181 891 b 221 913 261 925 298 925 b 468 925 367 553 204 457 b 218 629 239 797 238 814 b 238 838 213 871 181 891 z"},"|":{"x_min":0,"x_max":193,"ha":193,"o":"m 149 758 b 149 795 125 856 86 855 b 48 854 47 837 47 808 b 49 746 26 -95 96 -96 b 142 -96 150 731 149 758 z"},"t":{"x_min":0,"x_max":280,"ha":280,"o":"m 650 699 b 572 699 413 692 241 691 l 247 725 b 255 781 261 822 261 842 b 261 917 139 979 139 883 b 139 861 127 801 112 722 l 106 692 b -23 696 -149 705 -248 725 b -262 728 -273 715 -252 701 b -202 667 -131 619 -32 607 b 2 603 44 601 90 602 b 70 484 51 353 51 251 b 51 33 141 -84 201 -84 b 261 -84 174 -62 174 204 b 174 302 202 468 227 609 b 390 622 567 650 648 675 b 673 683 679 698 650 699 z"},"M":{"x_min":0,"x_max":833,"ha":833,"o":"m 791 737 b 791 769 684 772 657 772 b 632 772 607 710 590 611 b 547 494 461 202 428 89 b 427 106 427 126 427 147 b 427 454 481 855 481 888 b 481 921 422 955 379 955 b 336 955 324 943 324 905 b 324 900 324 890 323 877 b 230 777 168 405 143 228 b 143 243 143 260 143 278 b 143 572 170 576 170 611 b 170 647 70 668 42 668 b 15 668 11 637 11 637 b 11 614 -52 -81 150 -81 b 166 -81 190 -76 190 -62 b 190 -56 180 -46 170 -10 b 171 1 172 19 172 48 b 172 228 236 639 316 803 b 302 666 277 430 277 279 b 277 5 305 -95 411 -95 b 429 -95 456 -88 456 -68 b 456 -59 449 -44 442 -13 b 501 235 545 383 574 469 b 571 427 570 381 570 334 b 570 243 605 -36 735 -36 b 755 -36 779 -26 779 -20 b 779 -13 723 80 723 310 b 723 540 791 705 791 737 z"},"g":{"x_min":0,"x_max":442,"ha":442,"o":"m 438 -100 b 398 -81 317 -64 234 -57 b 238 -27 241 4 241 26 b 328 90 381 246 381 305 b 381 380 316 390 316 367 b 316 248 279 153 235 98 b 226 136 211 165 188 165 b 180 165 173 106 169 47 b 130 36 98 65 98 147 b 98 391 288 480 288 502 b 288 523 276 596 190 596 b 138 596 -4 387 -4 247 b -4 68 95 -1 165 -1 b 165 -1 166 -1 166 -1 b 165 -19 165 -35 165 -48 b 165 -50 165 -52 165 -54 b 80 -54 6 -67 -11 -103 b -32 -149 -2 -198 13 -205 b 24 -210 96 -186 187 -173 b 190 -177 193 -179 197 -179 b 199 -179 203 -176 206 -171 b 282 -162 370 -163 443 -198 b 497 -223 510 -266 494 -301 b 393 -516 -305 -592 -238 -449 b -190 -347 13 -346 25 -321 b 37 -295 -263 -314 -303 -427 b -327 -497 -213 -604 -169 -625 b 42 -724 481 -497 545 -361 b 567 -313 560 -157 438 -100 z"},"j":{"x_min":0,"x_max":330,"ha":330,"o":"m 220 683 b 220 721 168 781 118 781 b 68 781 25 782 25 732 b 25 681 220 593 220 683 z m 180 535 b 114 535 55 571 55 524 b 55 462 104 411 104 3 b 104 -212 0 -349 -70 -349 b -140 -349 -195 -295 -195 -332 b -195 -370 -134 -424 -37 -424 b 157 -424 274 -204 274 23 b 274 250 247 535 180 535 z"},"i":{"x_min":0,"x_max":248,"ha":248,"o":"m 178 606 b 178 644 125 704 76 704 b 26 704 -17 706 -17 655 b -17 605 178 516 178 606 z m 291 294 b 284 268 212 97 171 75 b 154 113 133 180 133 287 b 133 330 139 390 139 426 b 139 476 13 515 13 471 b 13 446 2 404 2 288 b 2 196 18 9 148 9 b 149 9 149 9 150 9 b 150 9 150 9 150 9 b 219 9 301 245 313 292 b 317 308 298 319 291 294 z"},"y":{"x_min":0,"x_max":411,"ha":411,"o":"m 359 429 b 359 466 306 496 254 496 b 210 496 238 465 238 441 b 238 439 238 436 238 433 l 238 433 b 238 374 157 125 136 60 b 128 84 121 121 121 191 b 121 334 160 453 160 489 b 160 526 95 556 43 556 b -1 556 27 525 27 501 b 27 467 1 293 1 184 b 1 39 101 -2 138 2 b 138 2 138 2 138 2 b 140 2 142 3 143 3 b 147 4 150 6 151 9 b 186 42 223 201 240 281 b 241 222 242 158 242 109 b 242 -104 104 -211 49 -205 b -6 -199 -46 -151 -49 -181 b -52 -211 -8 -259 69 -268 b 223 -285 366 -69 366 172 b 366 315 359 393 359 429 z"},"@":{"x_min":0,"x_max":775,"ha":775,"o":"m 435 682 b 220 682 78 435 78 248 b 78 52 225 -122 437 -122 b 461 -122 530 -86 432 -86 b 377 -86 189 -16 189 248 b 189 491 376 640 458 640 b 561 640 670 556 670 332 b 670 139 638 74 608 74 b 581 74 586 233 583 288 b 583 292 583 297 583 302 b 583 319 562 342 513 342 b 463 342 464 312 464 296 b 464 252 412 81 387 81 b 363 81 359 130 359 161 b 359 312 430 458 511 458 b 541 458 547 391 547 373 b 547 355 576 365 576 376 b 576 496 517 496 432 496 b 310 496 251 320 251 213 b 251 98 303 54 369 54 b 434 54 465 179 471 179 b 477 179 494 44 557 23 b 560 20 566 19 574 19 b 575 19 576 19 578 20 b 671 25 709 185 709 313 b 709 481 683 682 435 682 z"},".":{"x_min":0,"x_max":262,"ha":262,"o":"m 115 167 b 65 167 38 117 40 83 b 41 49 56 6 100 6 b 145 6 211 31 211 64 b 211 108 183 167 115 167 z"},"p":{"x_min":0,"x_max":496,"ha":496,"o":"m 362 530 b 349 539 250 558 217 525 b 192 499 160 396 137 299 b 144 410 151 491 151 513 b 151 554 100 554 62 554 b -11 554 -52 -335 152 -335 b 202 -335 126 -280 126 -22 b 126 31 127 84 129 134 b 150 229 214 489 277 489 b 311 489 329 38 205 38 b 149 38 205 1 263 1 b 483 1 489 445 362 530 z"},"X":{"x_min":0,"x_max":616,"ha":616,"o":"m 831 973 b 676 973 462 664 304 407 b 195 595 103 777 73 777 b 41 777 -19 697 -19 657 b -19 631 85 445 219 266 b 82 40 21 -82 -73 -82 b -141 -82 -128 -58 -154 -58 b -186 -58 -191 -211 -15 -211 b 82 -211 166 -89 314 144 b 419 25 533 -99 621 -99 b 676 -99 705 -62 705 -42 b 705 -10 678 -28 654 -28 b 579 -28 479 119 387 261 b 571 561 798 926 860 926 b 883 926 859 900 885 900 b 912 900 902 973 831 973 z"},"*":{"x_min":0,"x_max":540,"ha":540,"o":"m 436 669 b 410 673 380 675 349 676 b 368 704 384 732 396 758 b 415 799 387 811 365 780 b 339 741 313 709 287 679 b 283 726 278 772 273 811 b 267 856 220 847 222 808 b 224 770 225 733 226 697 b 193 721 160 744 131 763 b 93 787 70 746 101 722 b 127 702 151 682 175 662 b 140 656 108 648 81 639 b 39 625 49 595 87 602 b 135 610 179 614 221 615 b 193 590 162 566 126 540 b 89 516 127 451 172 481 b 189 493 205 508 222 524 b 221 506 220 488 219 469 b 219 416 287 405 288 457 b 291 488 292 523 291 559 b 312 540 333 519 355 498 b 395 463 448 508 409 542 b 388 564 364 586 338 608 b 366 605 394 600 425 594 b 468 584 489 657 436 669 z"},"Y":{"x_min":0,"x_max":630,"ha":630,"o":"m 562 659 b 562 750 503 795 451 795 b 398 795 415 755 415 728 b 415 695 416 541 405 360 b 337 224 223 16 166 16 b 107 16 173 643 173 777 b 173 872 78 921 37 921 b -41 921 0 866 0 806 b 0 501 -15 374 -15 293 b -15 41 114 -25 164 -25 b 242 -25 335 129 396 250 b 369 -41 304 -356 144 -356 b 13 -356 130 -473 201 -473 b 618 -473 562 659 562 659 z"},"c":{"x_min":0,"x_max":346,"ha":346,"o":"m 165 2 b 309 2 366 261 377 283 b 388 305 358 302 347 283 b 336 264 301 77 191 77 b 99 77 128 477 195 477 b 213 477 224 389 255 389 b 286 389 242 503 221 524 b 199 546 117 539 87 508 b 56 478 1 381 1 272 b 1 136 65 2 165 2 z"},"!":{"x_min":0,"x_max":297,"ha":297,"o":"m 154 371 b 150 539 192 867 192 889 b 192 920 144 968 98 966 b 52 965 52 952 52 928 b 52 878 -46 193 154 198 b 209 199 157 240 154 371 z m 209 33 b 209 68 160 122 116 122 b 70 122 33 124 33 78 b 33 32 209 -48 209 33 z"},"/":{"x_min":0,"x_max":619,"ha":619,"o":"m 34 11 b -4 -10 -20 -121 97 -63 b 241 8 531 850 602 900 b 620 930 601 970 557 928 b 422 828 120 72 34 11 z"},"[":{"x_min":0,"x_max":447,"ha":447,"o":"m 361 -67 b 345 -66 287 -71 244 -71 b 221 -71 203 -70 188 -69 b 181 -39 173 2 172 58 b 168 244 257 736 257 760 b 256 780 246 808 227 826 b 238 827 249 827 262 827 b 306 827 364 822 379 822 b 400 823 434 849 433 875 b 433 902 423 902 406 902 b 305 903 139 921 140 835 b 140 833 140 832 140 830 b 137 823 136 814 137 804 b 138 755 38 36 126 -104 b 130 -110 135 -116 141 -121 b 146 -125 151 -129 156 -131 b 210 -156 315 -147 388 -147 b 404 -147 414 -146 415 -120 b 416 -93 381 -67 361 -67 z"},"6":{"x_min":0,"x_max":624,"ha":624,"o":"m 465 589 b 534 589 559 623 563 659 b 567 695 571 908 389 908 b 77 908 22 665 3 504 b -16 342 51 1 279 1 b 654 1 636 558 343 558 b 262 558 203 539 161 512 b 175 684 235 838 345 838 b 396 838 448 790 434 671 b 429 623 396 589 465 589 z m 195 332 b 195 352 215 516 339 516 b 478 516 454 47 319 47 b 235 47 182 170 165 319 b 182 320 195 325 195 332 z"},"r":{"x_min":0,"x_max":412,"ha":412,"o":"m 281 569 b 235 569 151 344 125 213 b 123 241 122 273 122 310 b 122 386 142 436 142 477 b 142 519 111 554 44 554 b 10 554 -3 405 -3 303 b -3 -83 161 -33 161 -6 b 161 11 146 30 135 103 b 143 245 259 476 259 476 b 259 476 242 390 242 368 b 242 346 279 326 330 326 b 380 326 401 406 401 489 b 401 572 336 569 281 569 z"},"2":{"x_min":0,"x_max":713,"ha":713,"o":"m 305 146 b 408 270 495 445 495 573 b 495 721 450 858 264 858 b 77 858 61 612 61 579 b 61 546 108 508 155 508 b 202 508 182 539 182 583 b 182 627 257 794 312 794 b 367 794 365 651 365 573 b 365 421 286 254 204 143 l 128 139 b 114 137 101 135 90 132 b 71 128 56 122 46 116 b 7 96 0 70 0 57 b 0 33 18 -4 84 -4 b 133 -4 191 31 248 85 b 296 78 348 66 398 50 b 541 9 624 -66 639 -67 b 670 -70 699 -45 703 7 b 711 98 503 142 305 146 z m 58 19 b 47 19 41 28 42 39 l 41 39 b 41 59 54 72 76 81 b 82 84 89 86 97 87 b 116 91 138 93 163 92 b 122 47 84 19 58 19 z"},"{":{"x_min":0,"x_max":293,"ha":293,"o":"m 199 -68 b 180 -68 174 -11 175 42 l 175 80 b 177 145 177 222 169 279 b 155 361 138 409 110 426 b 138 443 155 489 169 574 b 177 629 177 708 175 772 l 175 809 b 174 863 180 919 199 919 b 225 919 218 949 151 949 b 136 949 116 944 108 934 b 93 919 67 875 67 822 l 67 787 b 68 713 69 615 62 560 b 47 470 21 440 16 428 b 16 428 16 427 16 426 b 16 425 16 423 16 422 b 21 411 47 381 62 292 b 69 236 68 138 67 65 l 67 30 b 67 -23 93 -68 108 -83 b 116 -93 135 -98 150 -98 b 211 -98 231 -68 199 -68 z"},"9":{"x_min":0,"x_max":629,"ha":629,"o":"m 339 908 b 28 908 -47 351 308 351 b 353 351 389 357 419 366 b 391 197 325 48 218 48 b 167 48 129 119 129 238 b 129 286 0 286 0 250 b 0 199 19 1 201 1 b 663 1 693 908 339 908 z m 428 577 b 428 557 437 393 312 393 b 174 393 179 859 332 859 b 396 859 431 735 434 585 b 431 582 428 580 428 577 z"}," ":{"x_min":0,"x_max":294,"ha":294,"o":""},"I":{"x_min":0,"x_max":270,"ha":270,"o":"m 177 865 b 185 958 38 909 33 837 b 27 764 71 383 58 216 b 38 -41 -57 -55 7 -60 b 72 -66 187 39 204 250 b 220 460 173 808 177 865 z"},"H":{"x_min":0,"x_max":581,"ha":581,"o":"m 625 492 b 582 507 538 519 496 527 b 506 664 517 770 517 785 b 516 819 470 875 426 874 b 381 873 379 857 380 831 b 381 809 372 687 369 543 b 334 545 299 546 266 545 b 266 550 266 556 266 561 b 266 866 181 1016 56 1016 b -120 1016 -259 802 -259 685 b -259 631 -224 642 -224 687 b -224 771 -99 975 38 975 b 135 975 125 778 125 683 b 124 639 123 587 121 531 b -23 509 -122 466 -130 450 b -138 435 -106 338 -76 348 b -31 381 38 413 119 439 b 115 331 109 224 97 155 b 51 -109 -63 -113 4 -125 b 70 -137 201 -40 239 175 b 254 260 261 369 264 473 b 298 479 333 483 368 486 b 367 254 386 -9 482 -9 b 536 -7 482 39 482 191 b 482 288 487 392 493 485 b 545 481 596 471 643 455 b 660 449 664 479 625 492 z"},"4":{"x_min":0,"x_max":604,"ha":604,"o":"m 510 305 b 498 305 481 304 461 302 b 468 502 500 772 500 794 b 499 828 449 884 400 883 b 376 882 364 878 357 872 b 354 869 352 866 351 861 b 350 857 349 853 349 847 b 327 756 -20 474 1 279 b 1 278 0 277 0 275 b 0 245 22 188 86 188 b 159 188 250 205 334 219 b 349 93 385 -2 460 0 b 519 1 463 47 460 199 b 459 211 459 224 459 237 b 475 239 490 240 503 240 b 560 240 562 229 579 229 b 595 229 582 305 510 305 z m 328 289 b 251 281 165 273 95 273 b 94 273 93 273 92 273 b 108 377 229 530 335 658 b 327 550 320 411 328 289 z"},"~":{"x_min":0,"x_max":498,"ha":498,"o":"m 367 316 b 425 316 418 277 438 277 b 458 277 427 415 328 415 b 244 415 188 384 131 384 b 75 384 79 403 57 403 b 35 403 79 281 136 281 b 194 281 262 316 367 316 z"},"D":{"x_min":0,"x_max":781,"ha":781,"o":"m 42 672 b 42 621 -96 -69 195 -69 b 492 -69 742 359 742 691 b 742 1023 428 1016 339 1016 b 9 1016 -193 749 -193 695 b -193 668 -84 678 -62 700 b -40 722 27 971 383 971 b 454 971 574 914 574 786 b 574 308 282 0 195 0 b 125 0 227 600 227 630 b 227 660 164 728 76 728 b 18 728 42 696 42 672 z"},"^":{"x_min":0,"x_max":382,"ha":382,"o":"m 144 734 b 122 712 92 684 57 673 b 2 655 1 632 26 624 b 53 616 89 616 132 630 b 155 638 178 652 198 666 b 214 658 231 650 248 644 b 291 630 332 628 345 632 b 370 640 378 655 323 673 b 288 684 258 712 236 734 b 195 775 173 762 144 734 z"},"0":{"x_min":0,"x_max":640,"ha":640,"o":"m 319 885 b 197 885 137 792 107 692 b 101 693 94 693 87 693 b 26 693 3 492 3 434 b 3 254 58 0 321 0 b 487 0 565 332 565 491 b 565 648 545 885 319 885 z m 428 491 b 428 301 385 45 297 45 b 188 45 152 300 152 349 b 152 360 152 371 152 383 b 163 380 175 378 186 378 b 236 378 215 412 215 459 b 215 635 266 817 371 817 b 429 817 428 573 428 491 z"},"F":{"x_min":0,"x_max":346,"ha":346,"o":"m 812 1070 b 536 1070 -345 832 -345 522 b -345 492 -316 507 -316 530 b -316 606 -150 696 60 774 b 48 738 37 687 29 626 b -42 595 -94 564 -94 544 b -95 518 -58 485 -33 484 b -27 484 -9 492 18 505 b 16 471 15 435 15 397 b 15 306 50 -23 180 -23 b 200 -23 224 -13 224 -6 b 224 0 168 144 168 373 b 168 450 176 524 186 589 b 280 635 379 678 423 677 b 448 676 481 665 482 686 b 483 709 450 740 419 743 b 383 744 297 723 205 693 b 221 765 235 815 235 830 b 235 831 235 832 235 832 b 470 904 719 955 842 955 b 898 955 940 930 940 963 b 940 996 879 1070 812 1070 z"},"`":{"x_min":0,"x_max":419,"ha":419,"o":"m 78 717 b 74 707 137 650 194 630 b 237 616 273 616 300 624 b 325 632 324 655 269 673 b 212 691 170 754 151 760 b 131 767 89 742 78 717 z"},"k":{"x_min":0,"x_max":476,"ha":476,"o":"m 610 -136 b 455 -136 376 133 310 255 b 384 282 442 332 442 427 b 442 528 366 526 299 526 b 250 526 174 419 138 322 b 145 448 183 671 183 719 b 183 772 34 810 34 757 b 34 734 0 389 0 292 b 0 91 91 3 168 3 b 206 3 167 21 147 146 b 148 175 151 202 156 227 b 280 199 302 -190 551 -190 b 640 -190 653 -136 610 -136 z m 165 275 b 212 463 327 538 327 459 b 327 438 299 296 165 275 z"},"u":{"x_min":0,"x_max":417,"ha":417,"o":"m 352 157 b 352 304 368 327 368 359 b 368 408 275 417 251 417 b 227 417 223 391 223 373 b 223 362 221 330 219 293 b 194 213 148 102 128 56 b 122 80 117 116 117 175 b 117 317 155 437 155 473 b 155 509 91 539 38 539 b -6 539 22 509 22 485 b 22 450 -3 277 -3 168 b -3 -9 147 -31 147 -4 b 147 6 143 13 139 24 l 215 215 b 214 197 214 181 214 166 b 214 53 287 9 351 9 b 390 9 352 41 352 157 z"},"]":{"x_min":0,"x_max":447,"ha":447,"o":"m 47 -67 b 27 -67 -8 -93 -7 -120 b -6 -146 4 -147 20 -147 b 93 -147 198 -156 252 -131 b 257 -129 262 -125 267 -121 b 273 -116 278 -110 282 -104 b 370 36 344 755 345 804 b 346 814 345 823 342 830 b 342 832 342 833 342 835 b 343 921 177 903 76 902 b 59 902 49 902 49 875 b 48 849 82 823 103 822 b 118 822 176 827 220 827 b 233 827 216 827 227 826 b 220 798 226 780 225 760 b 225 736 240 244 236 58 b 235 2 227 -39 220 -69 b 205 -70 187 -71 164 -71 b 121 -71 63 -66 47 -67 z"},"U":{"x_min":0,"x_max":654,"ha":654,"o":"m 604 791 b 604 826 489 828 461 828 b 415 828 368 627 368 362 b 368 347 368 329 370 308 b 303 89 175 -41 169 -47 b 160 -11 145 42 143 121 b 138 340 194 767 193 796 b 192 834 131 898 72 896 b 12 895 10 877 10 847 b 12 781 -117 -111 143 -105 b 170 -104 177 -97 176 -78 l 177 -87 b 280 10 344 118 383 215 b 404 99 452 -33 544 -33 b 566 -33 591 -23 591 -16 b 591 -8 531 91 531 336 b 531 581 604 757 604 791 z"},"o":{"x_min":0,"x_max":389,"ha":389,"o":"m 225 531 b 178 531 117 524 93 457 b 20 441 2 325 2 231 b 2 130 30 -4 148 -4 b 279 -4 330 170 330 323 b 330 475 283 531 225 531 z m 198 49 b 136 49 164 212 163 333 b 199 365 186 470 218 470 b 325 470 261 49 198 49 z"},"N":{"x_min":0,"x_max":630,"ha":630,"o":"m 578 860 b 578 926 518 947 470 947 b 451 947 430 897 412 826 b 313 640 220 173 196 45 b 177 105 160 199 160 340 b 160 468 193 590 193 642 b 193 694 99 753 65 753 b 31 753 27 711 27 693 b 27 667 -5 547 -5 382 b -5 65 135 -67 212 -67 b 239 -67 241 -65 232 -46 b 274 269 335 512 379 658 b 369 587 363 515 363 458 b 363 272 378 -13 538 -13 b 640 -13 514 20 514 373 b 514 709 578 792 578 860 z"},"+":{"x_min":0,"x_max":605,"ha":605,"o":"m 523 465 b 468 470 404 471 339 469 b 335 534 328 598 321 653 b 313 711 253 699 256 649 b 259 585 260 524 260 465 b 192 460 125 453 68 446 b 11 438 23 378 72 381 b 138 384 199 385 259 385 b 258 330 256 274 252 214 b 252 146 339 132 340 198 b 345 254 346 319 343 384 b 396 383 450 380 508 377 b 576 377 590 464 523 465 z"},"G":{"x_min":0,"x_max":697,"ha":697,"o":"m 657 465 b 657 511 627 533 575 535 l 575 536 b 573 536 571 536 570 535 b 569 536 568 536 567 536 b 566 536 566 535 565 535 b 407 533 264 466 143 395 b 247 722 600 818 600 849 b 600 908 538 947 454 947 b 330 947 3 620 3 320 b 3 315 3 311 3 307 b -71 260 -130 225 -174 225 b -311 225 -228 71 -168 71 b -112 71 -48 118 24 181 b 59 69 128 -6 170 -19 b 172 -21 176 -22 182 -22 b 197 -22 207 -21 212 -19 b 266 -8 330 29 382 65 b 378 27 376 -11 376 -50 b 376 -244 472 -439 565 -439 b 658 -439 523 -402 523 -114 b 523 234 657 439 657 465 z m 402 187 b 336 110 247 34 193 22 b 163 57 115 115 115 204 b 115 225 116 246 118 266 b 234 370 367 480 518 492 b 478 433 431 320 402 187 z"},"q":{"x_min":0,"x_max":581,"ha":581,"o":"m 299 323 b 299 324 300 326 300 326 l 299 323 z m 590 380 b 543 255 393 -13 335 -172 b 348 111 431 293 431 341 b 431 347 430 352 427 358 b 429 360 430 364 430 368 b 430 393 470 538 288 538 b 106 538 2 247 2 142 b 2 75 47 -2 107 -2 b 164 -2 257 146 274 161 b 259 65 245 -42 245 -117 b 245 -269 266 -351 317 -351 b 344 -351 338 -307 335 -272 b 409 -2 576 257 613 368 b 617 383 599 404 590 380 z m 305 370 b 305 358 300 325 293 281 l 299 323 b 290 282 152 25 120 25 b 57 25 197 487 339 487 b 378 487 396 426 400 386 b 362 410 305 415 305 370 z"},"d":{"x_min":0,"x_max":531,"ha":531,"o":"m 504 786 b 504 822 416 852 396 852 b 377 852 376 836 376 828 b 376 823 349 664 329 514 b 309 537 275 537 220 537 b 72 537 0 322 0 191 b 0 52 80 -1 160 -1 b 239 -1 290 118 298 118 b 305 118 325 -95 454 -95 b 499 -95 431 -84 431 300 b 431 522 504 750 504 786 z m 307 293 b 307 241 212 32 182 32 b 152 32 131 92 131 129 b 131 313 192 490 266 490 b 303 490 280 409 280 387 b 280 377 296 374 312 375 b 309 342 307 314 307 293 z"},"1":{"x_min":0,"x_max":442,"ha":442,"o":"m 248 728 b 248 728 195 497 195 353 b 195 209 219 -9 296 -9 b 342 -9 313 83 313 277 b 313 529 399 739 399 796 b 402 827 364 884 320 888 b 303 890 292 889 285 885 b 264 882 243 874 226 855 b 172 798 141 731 62 634 b 8 576 21 592 2 572 b -17 552 46 475 137 573 b 189 628 218 682 248 728 z"},"5":{"x_min":0,"x_max":645,"ha":645,"o":"m 401 588 b 268 588 162 532 140 527 b 139 526 139 526 138 526 b 138 541 138 559 140 580 b 145 659 168 732 185 778 b 281 789 405 831 478 831 b 523 831 524 820 537 820 b 550 820 546 900 489 900 b 439 900 272 867 160 867 b 159 867 159 867 159 867 b 142 875 124 882 110 881 b 77 880 75 870 74 854 b 72 817 -32 452 113 455 b 122 455 128 457 132 461 b 158 472 264 538 392 538 b 448 538 453 484 447 417 b 434 268 218 106 120 106 b 96 106 49 116 53 158 b 57 204 6 214 1 157 b -9 50 74 -5 127 -5 b 285 -5 565 174 587 424 b 593 494 576 588 401 588 z"}}}
